<mxfile host="app.diagrams.net" modified="2023-02-19T11:48:45.123Z" agent="5.0 (Macintosh; Intel Mac OS X 10_15_7) AppleWebKit/537.36 (KHTML, like Gecko) Chrome/110.0.0.0 Safari/537.36" etag="6muiMwlNpY8UVYE20tdD" version="20.8.20" type="github">
  <diagram name="Page-1" id="uNEvBY4QikqdjumtlErW">
    <mxGraphModel dx="954" dy="506" grid="1" gridSize="10" guides="1" tooltips="1" connect="1" arrows="1" fold="1" page="1" pageScale="1" pageWidth="850" pageHeight="1100" math="0" shadow="0">
      <root>
        <mxCell id="0" />
        <mxCell id="1" parent="0" />
        <mxCell id="HFaYhnQl0wXanQgO5TsE-2" value="" style="sketch=0;outlineConnect=0;fontColor=#232F3E;gradientColor=none;fillColor=#232F3D;strokeColor=none;dashed=0;verticalLabelPosition=bottom;verticalAlign=top;align=center;html=1;fontSize=12;fontStyle=0;aspect=fixed;pointerEvents=1;shape=mxgraph.aws4.tape_storage;" vertex="1" parent="1">
          <mxGeometry x="220" y="110" width="102.63" height="50" as="geometry" />
        </mxCell>
        <mxCell id="HFaYhnQl0wXanQgO5TsE-3" value="" style="sketch=0;pointerEvents=1;shadow=0;dashed=0;html=1;strokeColor=none;fillColor=#505050;labelPosition=center;verticalLabelPosition=bottom;verticalAlign=top;outlineConnect=0;align=center;shape=mxgraph.office.devices.hard_disk;" vertex="1" parent="1">
          <mxGeometry x="350" y="80" width="80" height="80" as="geometry" />
        </mxCell>
        <mxCell id="HFaYhnQl0wXanQgO5TsE-4" value="" style="sketch=0;pointerEvents=1;shadow=0;dashed=0;html=1;strokeColor=none;fillColor=#434445;aspect=fixed;labelPosition=center;verticalLabelPosition=bottom;verticalAlign=top;align=center;outlineConnect=0;shape=mxgraph.vvd.ssd;" vertex="1" parent="1">
          <mxGeometry x="460" y="100" width="85.21" height="60.5" as="geometry" />
        </mxCell>
        <mxCell id="HFaYhnQl0wXanQgO5TsE-6" value="Cloud" style="html=1;strokeColor=none;fillColor=#505050;labelPosition=center;verticalLabelPosition=middle;verticalAlign=top;align=center;fontSize=12;outlineConnect=0;spacingTop=-6;fontColor=#FFFFFF;sketch=0;shape=mxgraph.sitemap.cloud;" vertex="1" parent="1">
          <mxGeometry x="580" y="90" width="110" height="70" as="geometry" />
        </mxCell>
        <mxCell id="HFaYhnQl0wXanQgO5TsE-7" value="" style="shape=card;whiteSpace=wrap;html=1;fillColor=#ffffff;" vertex="1" parent="1">
          <mxGeometry x="50" y="60" width="150" height="100" as="geometry" />
        </mxCell>
        <mxCell id="HFaYhnQl0wXanQgO5TsE-8" value="00000000000000000000" style="text;html=1;strokeColor=none;fillColor=none;align=center;verticalAlign=middle;whiteSpace=wrap;rounded=0;" vertex="1" parent="1">
          <mxGeometry x="100" y="70" width="60" height="30" as="geometry" />
        </mxCell>
        <mxCell id="HFaYhnQl0wXanQgO5TsE-10" value="11111111111111111111111" style="text;html=1;strokeColor=none;fillColor=none;align=center;verticalAlign=middle;whiteSpace=wrap;rounded=0;" vertex="1" parent="1">
          <mxGeometry x="100" y="90" width="60" height="30" as="geometry" />
        </mxCell>
        <mxCell id="HFaYhnQl0wXanQgO5TsE-11" value="22222222222222222222" style="text;html=1;strokeColor=none;fillColor=none;align=center;verticalAlign=middle;whiteSpace=wrap;rounded=0;" vertex="1" parent="1">
          <mxGeometry x="100" y="110" width="60" height="30" as="geometry" />
        </mxCell>
        <mxCell id="HFaYhnQl0wXanQgO5TsE-12" value="33333333333333333333" style="text;html=1;strokeColor=none;fillColor=none;align=center;verticalAlign=middle;whiteSpace=wrap;rounded=0;" vertex="1" parent="1">
          <mxGeometry x="98.11" y="130" width="60" height="30" as="geometry" />
        </mxCell>
        <mxCell id="HFaYhnQl0wXanQgO5TsE-15" value="" style="rounded=0;whiteSpace=wrap;html=1;fillColor=#505050;" vertex="1" parent="1">
          <mxGeometry x="80" y="80" width="10" height="10" as="geometry" />
        </mxCell>
        <mxCell id="HFaYhnQl0wXanQgO5TsE-16" value="" style="rounded=0;whiteSpace=wrap;html=1;fillColor=#505050;" vertex="1" parent="1">
          <mxGeometry x="100" y="80" width="10" height="10" as="geometry" />
        </mxCell>
        <mxCell id="HFaYhnQl0wXanQgO5TsE-17" value="" style="rounded=0;whiteSpace=wrap;html=1;fillColor=#505050;" vertex="1" parent="1">
          <mxGeometry x="125" y="80" width="10" height="10" as="geometry" />
        </mxCell>
        <mxCell id="HFaYhnQl0wXanQgO5TsE-18" value="" style="rounded=0;whiteSpace=wrap;html=1;fillColor=#505050;" vertex="1" parent="1">
          <mxGeometry x="150" y="80" width="10" height="10" as="geometry" />
        </mxCell>
        <mxCell id="HFaYhnQl0wXanQgO5TsE-19" value="" style="rounded=0;whiteSpace=wrap;html=1;fillColor=#505050;" vertex="1" parent="1">
          <mxGeometry x="160" y="80" width="10" height="10" as="geometry" />
        </mxCell>
        <mxCell id="HFaYhnQl0wXanQgO5TsE-20" value="" style="rounded=0;whiteSpace=wrap;html=1;fillColor=#505050;" vertex="1" parent="1">
          <mxGeometry x="100" y="100" width="10" height="10" as="geometry" />
        </mxCell>
        <mxCell id="HFaYhnQl0wXanQgO5TsE-21" value="" style="rounded=0;whiteSpace=wrap;html=1;fillColor=#505050;" vertex="1" parent="1">
          <mxGeometry x="110" y="100" width="10" height="10" as="geometry" />
        </mxCell>
        <mxCell id="HFaYhnQl0wXanQgO5TsE-22" value="" style="rounded=0;whiteSpace=wrap;html=1;fillColor=#505050;" vertex="1" parent="1">
          <mxGeometry x="148.11" y="100" width="10" height="10" as="geometry" />
        </mxCell>
        <mxCell id="HFaYhnQl0wXanQgO5TsE-23" value="" style="rounded=0;whiteSpace=wrap;html=1;fillColor=#505050;" vertex="1" parent="1">
          <mxGeometry x="98.11000000000001" y="120" width="10" height="10" as="geometry" />
        </mxCell>
        <mxCell id="HFaYhnQl0wXanQgO5TsE-24" value="" style="rounded=0;whiteSpace=wrap;html=1;fillColor=#505050;" vertex="1" parent="1">
          <mxGeometry x="108.11000000000001" y="120" width="10" height="10" as="geometry" />
        </mxCell>
        <mxCell id="HFaYhnQl0wXanQgO5TsE-25" value="" style="rounded=0;whiteSpace=wrap;html=1;fillColor=#505050;" vertex="1" parent="1">
          <mxGeometry x="170" y="120" width="10" height="10" as="geometry" />
        </mxCell>
        <mxCell id="HFaYhnQl0wXanQgO5TsE-26" value="" style="rounded=0;whiteSpace=wrap;html=1;fillColor=#505050;" vertex="1" parent="1">
          <mxGeometry x="135" y="140" width="10" height="10" as="geometry" />
        </mxCell>
        <mxCell id="HFaYhnQl0wXanQgO5TsE-27" value="" style="rounded=0;whiteSpace=wrap;html=1;fillColor=#505050;" vertex="1" parent="1">
          <mxGeometry x="145" y="140" width="10" height="10" as="geometry" />
        </mxCell>
        <mxCell id="HFaYhnQl0wXanQgO5TsE-28" value="Punched Cards" style="text;html=1;strokeColor=none;fillColor=none;align=center;verticalAlign=middle;whiteSpace=wrap;rounded=0;" vertex="1" parent="1">
          <mxGeometry x="76.5" y="170" width="97" height="30" as="geometry" />
        </mxCell>
        <mxCell id="HFaYhnQl0wXanQgO5TsE-29" value="Magnetic Tapes" style="text;html=1;strokeColor=none;fillColor=none;align=center;verticalAlign=middle;whiteSpace=wrap;rounded=0;" vertex="1" parent="1">
          <mxGeometry x="225.63" y="170" width="97" height="30" as="geometry" />
        </mxCell>
        <mxCell id="HFaYhnQl0wXanQgO5TsE-30" value="Hard Disk" style="text;html=1;strokeColor=none;fillColor=none;align=center;verticalAlign=middle;whiteSpace=wrap;rounded=0;" vertex="1" parent="1">
          <mxGeometry x="341.5" y="170" width="97" height="30" as="geometry" />
        </mxCell>
        <mxCell id="HFaYhnQl0wXanQgO5TsE-31" value="Solid State Drive" style="text;html=1;strokeColor=none;fillColor=none;align=center;verticalAlign=middle;whiteSpace=wrap;rounded=0;" vertex="1" parent="1">
          <mxGeometry x="454.11" y="170" width="97" height="30" as="geometry" />
        </mxCell>
        <mxCell id="HFaYhnQl0wXanQgO5TsE-32" value="Cloud Storage" style="text;html=1;strokeColor=none;fillColor=none;align=center;verticalAlign=middle;whiteSpace=wrap;rounded=0;" vertex="1" parent="1">
          <mxGeometry x="586.5" y="170" width="97" height="30" as="geometry" />
        </mxCell>
      </root>
    </mxGraphModel>
  </diagram>
</mxfile>
